<?xml version="1.0" encoding="UTF-8"?>
<svg width="200" height="200" version="1.1" xmlns="http://www.w3.org/2000/svg">
 <g fill="none">
  <g stroke="#999" stroke-width="3">
   <path d="m0 16v-16h16"/>
   <path d="m200 16v-16h-16"/>
   <path d="m0 184v16h16"/>
   <path d="m200 184v16h-16"/>
  </g>
  <g stroke="#000">
   <path d="m149.99 50a70.711 70.711 0 0 1 20.711 50 70.711 70.711 0 0 1-20.711 50" stroke-width="10"/>
   <path d="m49.983 150a70.711 70.711 0 0 1 0-100" stroke-width="10"/>
   <circle cx="99.986" cy="100" r="55.431" stroke-width="5"/>
  </g>
 </g>
 <path d="m117.05 107.2 5.3423-0.78951q0.4823 4.0885 1.9477 6.0059 1.484 1.9174 3.9882 1.9174 2.6526 0 3.9882-1.6918 1.3541-1.72 1.3541-4.0039 0-1.4662-0.57504-2.4813-0.55649-1.0433-1.9663-1.8046-0.96459-0.50754-4.3963-1.8046-4.4148-1.6636-6.1956-4.0885-2.5042-3.4118-2.5042-8.318 0-3.158 1.1686-5.8931 1.1872-2.7633 3.3946-4.2013 2.226-1.438 5.3609-1.438 5.1197 0 7.6982 3.4118 2.597 3.4118 2.7268 9.1075l-5.4907 0.36656q-0.35244-3.1862-1.5211-4.5679-1.1501-1.4098-3.4688-1.4098-2.3929 0-3.747 1.4944-0.87184 0.95869-0.87184 2.5659 0 1.4662 0.81619 2.5095 1.0388 1.3252 5.0455 2.7633 4.0068 1.438 5.9174 2.9888 1.9292 1.5226 3.0051 4.2013 1.0944 2.6505 1.0944 6.5698 0 3.5528-1.2985 6.6544t-3.6728 4.6243q-2.3744 1.4944-5.9174 1.4944-5.1568 0-7.9208-3.6092-2.7639-3.6374-3.3019-10.574zm-26.025-27.887h10.87q3.2277 0 4.8044 0.42295 1.5953 0.39475 2.8381 1.6918 1.2614 1.297 2.0961 3.4682 0.83473 2.1429 0.83473 4.8216 0 2.9043-1.0388 5.3292-1.0202 2.4249-2.7825 3.6374 2.4857 1.0997 3.8212 3.7502 1.3356 2.6505 1.3356 6.2315 0 2.8197-0.87184 5.4984-0.85329 2.6505-2.3558 4.2577-1.484 1.579-3.6729 1.9456-1.3727 0.22558-6.6223 0.28197h-9.2563zm5.4907 6.88v9.5587h3.5987q3.2091 0 3.9882-0.14098 1.4098-0.25377 2.2074-1.4662 0.81619-1.2407 0.81619-3.2426 0-1.9174-0.7049-3.1016-0.68633-1.2125-2.059-1.4662-0.81619-0.14098-4.6931-0.14098zm0 16.439v11.053h5.0826q2.968 0 3.7656-0.25377 1.2243-0.33836 1.9848-1.6354 0.77908-1.3252 0.77908-3.5246 0-1.861-0.59359-3.158t-1.7251-1.8892q-1.113-0.59213-4.86-0.59213zm-8.4216 18.018h-5.973l-2.3744-9.3895h-10.87l-2.2445 9.3895h-5.8246l10.592-41.336h5.8061zm-10.11-16.354-3.7471-15.339-3.6729 15.339z"/>
</svg>
