<?xml version="1.0" encoding="UTF-8" standalone="no"?>
<!-- Created with Inkscape (http://www.inkscape.org/) -->

<svg
   width="53.710415mm"
   height="53.710415mm"
   viewBox="0 0 53.710415 53.710415"
   version="1.1"
   id="svg1"
   inkscape:version="1.3.2 (091e20e, 2023-11-25, custom)"
   sodipodi:docname="ISO_7000_-_Ref-No_0643.svg"
   xmlns:inkscape="http://www.inkscape.org/namespaces/inkscape"
   xmlns:sodipodi="http://sodipodi.sourceforge.net/DTD/sodipodi-0.dtd"
   xmlns="http://www.w3.org/2000/svg"
   xmlns:svg="http://www.w3.org/2000/svg">
  <sodipodi:namedview
     id="namedview1"
     pagecolor="#ffffff"
     bordercolor="#000000"
     borderopacity="0.25"
     inkscape:showpageshadow="2"
     inkscape:pageopacity="0.0"
     inkscape:pagecheckerboard="0"
     inkscape:deskcolor="#d1d1d1"
     inkscape:document-units="mm"
     inkscape:zoom="0.74029882"
     inkscape:cx="101.98584"
     inkscape:cy="100.63504"
     inkscape:window-width="1920"
     inkscape:window-height="1009"
     inkscape:window-x="-8"
     inkscape:window-y="-8"
     inkscape:window-maximized="1"
     inkscape:current-layer="layer1" />
  <defs
     id="defs1" />
  <g
     inkscape:label="Ebene 1"
     inkscape:groupmode="layer"
     id="layer1"
     transform="translate(-78.052078,-121.70834)">
    <g
       fill="none"
       id="g50898-3-7-2"
       transform="matrix(0.26458333,0,0,0.26458333,78.448953,122.10521)"
       inkscape:label="2"
       style="display:inline">
      <g
         stroke="#999999"
         stroke-width="3"
         id="g50892-0-1-0"
         inkscape:label="2">
        <path
           d="M 0,16 V 0 h 16"
           id="path50884-9-2-1"
           inkscape:label="2" />
        <path
           d="M 200,16 V 0 h -16"
           id="path50886-6-7-1"
           inkscape:label="2" />
        <path
           d="m 0,184 v 16 h 16"
           id="path50888-7-3-2"
           inkscape:label="2" />
        <path
           d="m 200,184 v 16 h -16"
           id="path50890-3-1-9"
           inkscape:label="2" />
      </g>
    </g>
    <path
       id="path1-9"
       style="color:#000000;display:inline;fill:#000000;-inkscape-stroke:none"
       d="m 92.514143,128.30974 c -1.6285,0 -3.13263,1.22389 -3.13263,2.9099 v 34.6878 c 0,1.68601 1.50413,2.9099 3.13263,2.9099 h 14.720547 c 1.6285,0 3.13314,-1.22389 3.13314,-2.9099 v -8.77879 h -2.59984 v 8.77879 c 0,0.0989 -0.13171,0.31058 -0.5333,0.31058 H 92.514143 c -0.40159,0 -0.5333,-0.21165 -0.5333,-0.31058 v -34.6878 c 0,-0.0989 0.13171,-0.31058 0.5333,-0.31058 h 14.720547 c 0.40159,0 0.5333,0.21165 0.5333,0.31058 v 8.46253 h 2.59984 v -8.46253 c 0,-1.68601 -1.50464,-2.9099 -3.13314,-2.9099 z m 5.51284,9.67228 -2.29753,1.72909 c 2.19958,3.69315 7.569417,7.07661 12.102097,6.1991 l -0.0134,0.004 5.95313,-1.12655 0.47491,2.75177 6.1867,-5.12785 -7.54114,-2.72025 0.43718,2.53473 -5.9831,1.1312 -0.008,5.2e-4 c -3.52261,0.68195 -7.840847,-2.52748 -9.311057,-5.3759 z m 16.219167,11.41222 -0.47491,2.75177 -5.95313,-1.12655 0.0134,0.004 c -4.53268,-0.87751 -9.902517,2.50594 -12.102097,6.1991 l 2.29753,1.72909 c 1.47021,-2.84841 5.788447,-6.05784 9.311057,-5.3759 l 0.008,5.2e-4 5.9831,1.1312 -0.43718,2.53473 7.54114,-2.72025 z"
       inkscape:label="1" />
  </g>
</svg>
