<?xml version="1.0" encoding="UTF-8"?>
<svg width="200" height="200" version="1.1" xmlns="http://www.w3.org/2000/svg">
 <g fill="none">
  <g stroke="#999" stroke-width="3">
   <path d="m0 16v-16h16"/>
   <path d="m200 16v-16h-16"/>
   <path d="m0 184v16h16"/>
   <path d="m200 184v16h-16"/>
  </g>
  <g stroke="#000">
   <g stroke-width="10">
    <path d="m31.768 72.094a73.695 73.74 0 0 1 16.104-24.236"/>
    <path d="m27.723 114.49a73.695 73.74 0 0 1 1e-6 -28.971"/>
    <path d="m47.872 152.14a73.695 73.74 0 0 1-16.104-24.236"/>
   </g>
   <ellipse cx="99.985" cy="100" rx="57.77" ry="57.806" stroke-width="5"/>
   <g stroke-width="10">
    <path d="m168.2 72.094a73.695 73.74 0 0 0-16.104-24.236"/>
    <path d="m172.25 114.49a73.695 73.74 0 0 0-1e-5 -28.971"/>
    <path d="m152.1 152.14a73.695 73.74 0 0 0 16.104-24.236"/>
   </g>
  </g>
 </g>
</svg>
