<?xml version="1.0" encoding="UTF-8"?>
<svg width="200" height="200" version="1.1" xmlns="http://www.w3.org/2000/svg">
 <g fill="none" stroke="#999" stroke-width="3">
  <path d="m0 16v-16h16"/>
  <path d="m200 16v-16h-16"/>
  <path d="m0 184v16h16"/>
  <path d="m200 184v16h-16"/>
 </g>
 <path d="m92.424 3.5957-5.8926 18.131a79.55 79.55 0 0 0-13.891 3.791l-14.24-12.818-13.164 7.5996 3.957 18.619a79.55 79.55 0 0 0-10.244 10.232l-18.625-3.9551-7.6016 13.164 12.812 14.23a79.55 79.55 0 0 0-3.7969 13.887l-18.143 5.8984v15.201l18.131 5.8926a79.55 79.55 0 0 0 3.791 13.891l-12.818 14.24 7.5996 13.164 18.619-3.957a79.55 79.55 0 0 0 10.232 10.244l-3.9551 18.625 13.164 7.6016 14.23-12.812a79.55 79.55 0 0 0 13.887 3.7969l5.8984 18.143h15.201l5.8926-18.131a79.55 79.55 0 0 0 13.891-3.791l14.24 12.818 13.164-7.5996-3.957-18.619a79.55 79.55 0 0 0 10.244-10.232l18.625 3.9551 7.6016-13.164-12.812-14.23a79.55 79.55 0 0 0 3.7969-13.887l18.143-5.8984v-15.201l-18.02-5.8555a79.55 79.55 0 0 0-3.7617-14.082l12.678-14.086-7.5996-13.164-18.521 3.9355a79.55 79.55 0 0 0-10.311-10.314l3.9356-18.533-13.164-7.6016-14.076 12.674a79.55 79.55 0 0 0-14.078-3.7715l-5.8613-18.029h-15.201zm7.5762 29.02a67.385 67.385 0 0 1 67.385 67.385 67.385 67.385 0 0 1-67.385 67.385 67.385 67.385 0 0 1-67.385-67.385 67.385 67.385 0 0 1 67.385-67.385z"/>
 <path d="m69.763 78.718c-5.3658 0.0552-10.554 3.3111-12.832 8.1875 4.8913 2.6419 9.7826 5.2838 14.674 7.9258-0.96248 4.4717-3.1908 8.6705-6.4316 11.908-5.0885-2.748-10.177-5.4961-15.266-8.2441-1.6289 5.0575-0.32277 10.91 2.6612 15.261 3.1962 4.6497 8.6499 8.2442 14.493 7.4096 5.1591 0.26416 9.7064-2.8322 12.726-6.7906 2.1703-3.4074 5.6173-5.8466 9.6235-6.5356 10.285-2.1451 20.83-1.2462 31.254-1.4384 7.6871-0.0262 15.377 0.053 23.062-0.0405 5.716-0.31814 9.1164-7.6363 5.7191-12.228-2.0276-3.3672-6.1074-3.6386-9.6193-3.4618-14.556 9e-3 -29.121-0.0134-43.67 0-3.839 0.70569-7.9133-0.25351-10.689-3.0874-3.5788-3.479-7.05-7.6912-12.281-8.5487-1.1244-0.23555-2.2756-0.34455-3.4243-0.31701z"/>
</svg>
