<?xml version="1.0" encoding="UTF-8"?>
<svg width="200" height="200" version="1.1" xmlns="http://www.w3.org/2000/svg">
 <g fill="none">
  <g stroke="#999" stroke-width="3">
   <path d="m0 16v-16h16"/>
   <path d="m200 16v-16h-16"/>
   <path d="m0 184v16h16"/>
   <path d="m200 184v16h-16"/>
  </g>
  <path d="m79.047 54.485h41.906l4e-4 22.605c10.15 6.9774 16.221 18.563 16.221 30.95 0 20.697-16.644 37.475-37.175 37.475s-37.175-16.778-37.175-37.475c0-12.373 6.059-23.95 16.207-30.907z" stroke="#000" stroke-width="8"/>
  <rect x="34" y="34" width="132" height="132" stroke="#000" stroke-width="5"/>
 </g>
 <path d="m42.201 17.717h10.701v16.283h-10.701z"/>
 <path d="m68.425 17.717h10.701v16.283h-10.701z"/>
 <path d="m94.65 17.717h10.701v16.283h-10.701z"/>
 <path d="m120.87 17.717h10.701v16.283h-10.701z"/>
 <path d="m147.1 17.717h10.701v16.283h-10.701z"/>
 <path d="m42.201 166h10.701v16.283h-10.701z"/>
 <path d="m68.425 166h10.701v16.283h-10.701z"/>
 <path d="m94.65 166h10.701v16.283h-10.701z"/>
 <path d="m120.87 166h10.701v16.283h-10.701z"/>
 <path d="m147.1 166h10.701v16.283h-10.701z"/>
 <path d="m182.28 39.701v10.701h-16.283v-10.701z"/>
 <path d="m182.28 65.925v10.701h-16.283v-10.701z"/>
 <path d="m182.28 92.15v10.701h-16.283v-10.701z"/>
 <path d="m182.28 118.37v10.701h-16.283v-10.701z"/>
 <path d="m182.28 144.6v10.701h-16.283v-10.701z"/>
 <path d="m34 42.201v10.701h-16.283v-10.701z"/>
 <path d="m34 68.425v10.701h-16.283v-10.701z"/>
 <path d="m34 94.65v10.701h-16.283v-10.701z"/>
 <path d="m34 120.87v10.701h-16.283v-10.701z"/>
 <path d="m34 147.1v10.701h-16.283v-10.701z"/>
</svg>
