<?xml version="1.0" encoding="UTF-8"?>
<svg width="200" height="200" version="1.1" xmlns="http://www.w3.org/2000/svg">
 <g fill="none">
  <g stroke="#999" stroke-width="3">
   <path d="m0 16v-16h16"/>
   <path d="m200 16v-16h-16"/>
   <path d="m0 184v16h16"/>
   <path d="m200 184v16h-16"/>
  </g>
  <path d="m67.161 29.237h65.678l6.3e-4 35.144c15.907 10.848 25.423 28.861 25.423 48.119 0 32.178-26.085 58.263-58.263 58.263s-58.263-26.085-58.263-58.263c0-19.237 9.496-37.235 25.4-48.052z" stroke="#000" stroke-width="10"/>
 </g>
 <path d="m65.728 136.36v-45.145h6.9604v23.958l8.1494-11.517h8.5705l-8.9916 11.948 9.6356 20.756h-7.5054l-6.6137-14.689-3.2449 4.2188v10.47z"/>
 <path d="m99.391 136.36-8.6696-45.145h7.5054l5.4742 31.01 6.6384-31.01h8.7191l6.366 31.534 5.5733-31.534h7.3815l-8.8182 45.145h-7.7779l-7.2329-33.751-7.2081 33.751z"/>
</svg>
