<?xml version="1.0" encoding="UTF-8"?>
<svg width="200" height="200" version="1.1" xmlns="http://www.w3.org/2000/svg">
 <g fill="none" stroke="#999" stroke-width="3">
  <path d="m0 16v-16h16"/>
  <path d="m200 16v-16h-16"/>
  <path d="m0 184v16h16"/>
  <path d="m200 184v16h-16"/>
 </g>
 <path d="m149.06 56.081-9.0975 121.05h-83.919l-9.0975-121.05z" fill="none" stroke="#000" stroke-width="10"/>
 <path d="m67.418 97.982a10.434 10.434 0 0 1-10.146 8.248 10.434 10.434 0 0 1-6.752-2.5762l5.5234 73.475h83.918l5.5234-73.475a10.434 10.434 0 0 1-6.752 2.5762 10.434 10.434 0 0 1-10.146-8.248h-6.8594a10.434 10.434 0 0 1-10.148 8.248 10.434 10.434 0 0 1-10.146-8.248h-6.8594a10.434 10.434 0 0 1-10.146 8.248 10.434 10.434 0 0 1-10.148-8.248z"/>
 <path d="m154.35 17.872-31.154 18.599-19.693 76.842 6.8789 1.7637 18.951-73.947 29.114-16.152z"/>
</svg>
