<?xml version="1.0" encoding="UTF-8"?>
<svg width="200" height="200" version="1.1" xmlns="http://www.w3.org/2000/svg">
 <g fill="none" stroke="#999" stroke-width="3">
  <path d="m0 16v-16h16"/>
  <path d="m200 16v-16h-16"/>
  <path d="m0 184v16h16"/>
  <path d="m200 184v16h-16"/>
 </g>
 <path d="m93.321 165.38h8.1007l-27.83-50.165c16.332-1.7084 25.87-13.512 25.87-32.46 0-20.656-11.106-32.926-29.79-32.926h-34.493v115.86h6.9248v-50.321h23.779zm-51.217-108.1h26.523c14.764 0 23.387 9.4739 23.387 25.471 0 15.997-8.6233 25.471-23.387 25.471h-26.523z"/>
 <g fill="none" stroke="#000" stroke-width="10">
  <path d="m111.86 61.807 62.339-27.755"/>
  <path d="m116.39 83.115h68.239"/>
  <path d="m111.86 104.42 62.339 27.755"/>
 </g>
</svg>
