<?xml version="1.0" encoding="UTF-8" standalone="no"?>
<!-- Created with Inkscape (http://www.inkscape.org/) -->

<svg
   width="53.710415mm"
   height="53.710415mm"
   viewBox="0 0 53.710415 53.710415"
   version="1.1"
   id="svg1"
   inkscape:version="1.3.2 (091e20e, 2023-11-25, custom)"
   sodipodi:docname="ISO_7000_-_Ref-No_0637B.svg"
   xmlns:inkscape="http://www.inkscape.org/namespaces/inkscape"
   xmlns:sodipodi="http://sodipodi.sourceforge.net/DTD/sodipodi-0.dtd"
   xmlns="http://www.w3.org/2000/svg"
   xmlns:svg="http://www.w3.org/2000/svg">
  <sodipodi:namedview
     id="namedview1"
     pagecolor="#ffffff"
     bordercolor="#000000"
     borderopacity="0.25"
     inkscape:showpageshadow="2"
     inkscape:pageopacity="0.0"
     inkscape:pagecheckerboard="0"
     inkscape:deskcolor="#d1d1d1"
     inkscape:document-units="mm"
     inkscape:zoom="0.74029882"
     inkscape:cx="-168.17533"
     inkscape:cy="49.304415"
     inkscape:window-width="1920"
     inkscape:window-height="1009"
     inkscape:window-x="-8"
     inkscape:window-y="-8"
     inkscape:window-maximized="1"
     inkscape:current-layer="layer1" />
  <defs
     id="defs1" />
  <g
     inkscape:label="Ebene 1"
     inkscape:groupmode="layer"
     id="layer1"
     transform="translate(-149.225,-135.46667)">
    <g
       fill="none"
       id="g50898-3-7-2"
       transform="matrix(0.26458333,0,0,0.26458333,149.62187,135.86354)"
       inkscape:label="2"
       style="display:inline">
      <g
         stroke="#999999"
         stroke-width="3"
         id="g50892-0-1-0"
         inkscape:label="2">
        <path
           d="M 0,16 V 0 h 16"
           id="path50884-9-2-1"
           inkscape:label="2" />
        <path
           d="M 200,16 V 0 h -16"
           id="path50886-6-7-1"
           inkscape:label="2" />
        <path
           d="m 0,184 v 16 h 16"
           id="path50888-7-3-2"
           inkscape:label="2" />
        <path
           d="m 200,184 v 16 h -16"
           id="path50890-3-1-9"
           inkscape:label="2" />
      </g>
    </g>
    <path
       id="path1-6"
       style="color:#000000;fill:#000000;stroke-width:1;-inkscape-stroke:none"
       d="m 167.37841,142.44221 -2.04432,4.37493 h 0.85731 c 0.0473,0.14181 0.373,1.12317 0.70797,2.44429 0.35993,1.4196 0.66665,3.17157 0.60719,4.05247 -0.0788,1.16705 -0.66133,2.39583 -1.33015,3.77548 -0.66882,1.37965 -1.42689,2.92155 -1.44125,4.76353 -0.0146,1.87094 0.78217,3.43083 1.46296,4.81831 0.68079,1.38751 1.24815,2.60943 1.26969,3.74448 0.0129,0.67666 -0.37819,2.17894 -0.81649,3.37705 -0.12581,0.34391 -0.24835,0.65527 -0.36432,0.94102 h 2.6417 c 0.0125,-0.0337 0.0242,-0.0615 0.0367,-0.0956 0.47855,-1.30813 0.99401,-2.84055 0.96687,-4.26951 -0.0353,-1.86128 -0.84481,-3.40432 -1.52136,-4.78317 -0.67654,-1.37886 -1.21957,-2.58709 -1.21078,-3.71295 0.009,-1.1485 0.53607,-2.34691 1.19528,-3.70675 0.65921,-1.35983 1.44784,-2.86927 1.57045,-4.68602 0.10271,-1.52158 -0.29316,-3.30614 -0.678,-4.824 -0.18198,-0.71774 -0.36631,-1.35427 -0.51263,-1.83864 h 0.64647 z m 8.69766,0 -2.04432,4.37493 h 0.85731 c 0.0473,0.14181 0.373,1.12317 0.70797,2.44429 0.35993,1.4196 0.66665,3.17157 0.60719,4.05247 -0.0788,1.16705 -0.66133,2.39583 -1.33015,3.77548 -0.66882,1.37965 -1.42689,2.92155 -1.44125,4.76353 -0.0146,1.87094 0.78217,3.43083 1.46296,4.81831 0.68079,1.38751 1.24815,2.60943 1.26969,3.74448 0.0129,0.67666 -0.37819,2.17894 -0.81649,3.37705 -0.12581,0.34391 -0.24835,0.65527 -0.36432,0.94102 h 2.6417 c 0.0125,-0.0337 0.0242,-0.0615 0.0367,-0.0956 0.47855,-1.30813 0.99401,-2.84055 0.96687,-4.26951 -0.0353,-1.86128 -0.84481,-3.40432 -1.52136,-4.78317 -0.67654,-1.37886 -1.21957,-2.58709 -1.21078,-3.71295 0.009,-1.1485 0.53607,-2.34691 1.19528,-3.70675 0.65921,-1.35983 1.44784,-2.86927 1.57045,-4.68602 0.10271,-1.52158 -0.29316,-3.30614 -0.678,-4.824 -0.18198,-0.71774 -0.36631,-1.35427 -0.51263,-1.83864 h 0.64647 z m 8.69817,0 -2.04432,4.37493 h 0.85732 c 0.0473,0.14181 0.37299,1.12317 0.70796,2.44429 0.35993,1.4196 0.66666,3.17157 0.6072,4.05247 -0.0788,1.16705 -0.66133,2.39583 -1.33015,3.77548 -0.66882,1.37965 -1.4269,2.92155 -1.44126,4.76353 -0.0146,1.87094 0.78217,3.43083 1.46296,4.81831 0.68079,1.38751 1.24815,2.60943 1.26969,3.74448 0.0129,0.67666 -0.37818,2.17894 -0.81648,3.37705 -0.12581,0.34391 -0.24835,0.65527 -0.36432,0.94102 h 2.6417 c 0.0125,-0.0337 0.0242,-0.0615 0.0367,-0.0956 0.47855,-1.30813 0.994,-2.84055 0.96686,-4.26951 -0.0353,-1.86128 -0.8448,-3.40432 -1.52135,-4.78317 -0.67654,-1.37886 -1.21957,-2.58709 -1.21078,-3.71295 0.009,-1.1485 0.53607,-2.34691 1.19528,-3.70675 0.65921,-1.35983 1.44783,-2.86927 1.57044,-4.68602 0.10271,-1.52158 -0.29315,-3.30614 -0.67799,-4.824 -0.18198,-0.71774 -0.36631,-1.35427 -0.51263,-1.83864 h 0.64647 z m -25.90022,37.29487 v 2.46445 h 34.41237 v -2.46445 z"
       inkscape:label="1" />
  </g>
</svg>
