<?xml version="1.0" encoding="UTF-8"?>
<svg width="200" height="200" version="1.1" xmlns="http://www.w3.org/2000/svg">
 <g fill="none">
  <g stroke="#999" stroke-width="3">
   <path d="m0 16v-16h16"/>
   <path d="m200 16v-16h-16"/>
   <path d="m0 184v16h16"/>
   <path d="m200 184v16h-16"/>
  </g>
  <circle cx="52.523" cy="130.1" r="12.089" stroke="#000" stroke-width="6.5"/>
  <circle cx="108.35" cy="130.1" r="12.089" stroke="#000" stroke-width="6.5"/>
 </g>
 <g>
  <path d="m37.217 68.192h21.504v25.67h-34.746l12.203-25.02c0.19718-0.40427 0.58927-0.65039 1.0391-0.65039zm28.004 39.861v-46.361h-28.004c-2.9206 0-5.6025 1.6758-6.8828 4.3008l-13.986 28.678v35.43l14.129 3.6e-4c0-12.176 9.8707-22.047 22.047-22.047z"/>
  <rect x="70.551" y="54.56" width="58.369" height="53.493"/>
  <path d="m136.86 117.38v-13.453h52.463v13.453h-43.446l-10.165 19.118-7.0297-3.7378z"/>
 </g>
</svg>
