<?xml version="1.0" encoding="UTF-8"?>
<svg width="200" height="200" version="1.1" xmlns="http://www.w3.org/2000/svg">
 <g fill="none">
  <g stroke="#999" stroke-width="3">
   <path d="m0 16v-16h16"/>
   <path d="m200 16v-16h-16"/>
   <path d="m0 184v16h16"/>
   <path d="m200 184v16h-16"/>
  </g>
  <path d="m47.511 139.55c-7.6589 0-14.274-5.357-15.867-12.849l-9.8387-46.287c-2.1854-10.281 5.6555-19.964 16.167-19.964h124.06c10.511-2e-6 18.352 9.6827 16.167 19.964l-9.8387 46.287c-1.5924 7.4916-8.2077 12.849-15.867 12.849h-104.98z" stroke="#000" stroke-width="10"/>
 </g>
 <circle cx="52.754" cy="85.731" r="6.9915"/>
 <circle cx="76.377" cy="85.731" r="6.9915"/>
 <circle cx="100" cy="85.731" r="6.9915"/>
 <circle cx="123.62" cy="85.731" r="6.9915"/>
 <circle cx="147.25" cy="85.731" r="6.9915"/>
 <circle cx="64.566" cy="114.12" r="6.9915"/>
 <circle cx="88.189" cy="114.12" r="6.9915"/>
 <circle cx="111.81" cy="114.12" r="6.9915"/>
 <circle cx="135.43" cy="114.12" r="6.9915"/>
</svg>
