<?xml version="1.0" encoding="UTF-8" standalone="no"?>
<!-- Created with Inkscape (http://www.inkscape.org/) -->

<svg
   width="53.710415mm"
   height="53.710415mm"
   viewBox="0 0 53.710415 53.710415"
   version="1.1"
   id="svg1"
   inkscape:version="1.3.2 (091e20e, 2023-11-25, custom)"
   sodipodi:docname="ISO_7000_-_Ref-No_0642.svg"
   xmlns:inkscape="http://www.inkscape.org/namespaces/inkscape"
   xmlns:sodipodi="http://sodipodi.sourceforge.net/DTD/sodipodi-0.dtd"
   xmlns="http://www.w3.org/2000/svg"
   xmlns:svg="http://www.w3.org/2000/svg">
  <sodipodi:namedview
     id="namedview1"
     pagecolor="#ffffff"
     bordercolor="#000000"
     borderopacity="0.25"
     inkscape:showpageshadow="2"
     inkscape:pageopacity="0.0"
     inkscape:pagecheckerboard="0"
     inkscape:deskcolor="#d1d1d1"
     inkscape:document-units="mm"
     inkscape:zoom="0.74029882"
     inkscape:cx="-57.40925"
     inkscape:cy="305.95753"
     inkscape:window-width="1920"
     inkscape:window-height="1009"
     inkscape:window-x="-8"
     inkscape:window-y="-8"
     inkscape:window-maximized="1"
     inkscape:current-layer="layer1" />
  <defs
     id="defs1" />
  <g
     inkscape:label="Ebene 1"
     inkscape:groupmode="layer"
     id="layer1"
     transform="translate(-120.12084,-67.468745)">
    <g
       fill="none"
       id="g50898-3-7-2"
       transform="matrix(0.26458333,0,0,0.26458333,120.51771,67.86562)"
       inkscape:label="2"
       style="display:inline">
      <g
         stroke="#999999"
         stroke-width="3"
         id="g50892-0-1-0"
         inkscape:label="2">
        <path
           d="M 0,16 V 0 h 16"
           id="path50884-9-2-1"
           inkscape:label="2" />
        <path
           d="M 200,16 V 0 h -16"
           id="path50886-6-7-1"
           inkscape:label="2" />
        <path
           d="m 0,184 v 16 h 16"
           id="path50888-7-3-2"
           inkscape:label="2" />
        <path
           d="m 200,184 v 16 h -16"
           id="path50890-3-1-9"
           inkscape:label="2" />
      </g>
    </g>
    <path
       id="path1"
       style="color:#000000;fill:#000000;-inkscape-stroke:none"
       d="m 134.87419,76.63845 c -1.6285,0 -3.13262,1.22441 -3.13262,2.91042 v 7.42642 l 2.59932,-0.45424 v -6.97218 c 0,-0.0989 0.13171,-0.31058 0.5333,-0.31058 h 24.20318 c 0.40159,0 0.5333,0.21165 0.5333,0.31058 v 6.97218 l 2.59984,0.45424 v -7.42642 c 0,-1.68601 -1.50464,-2.91042 -3.13314,-2.91042 z m 5.86373,5.12372 c 0,3.1517 -2.38003,6.55964 -6.31073,6.99596 l -0.008,0.002 -6.28334,0.77102 -0.33589,-2.55024 -6.39186,4.83899 7.43107,3.05717 -0.36432,-2.7683 6.25337,-0.76688 h -0.0139 c 5.28122,-0.58623 8.62479,-5.12388 8.62479,-9.57978 z m 9.87485,0 c 0,4.4559 3.34356,8.99355 8.6248,9.57978 h -0.0139 l 6.25336,0.76688 -0.36431,2.7683 7.43108,-3.05717 -6.39187,-4.83899 -0.33589,2.55024 -6.28334,-0.77102 -0.008,-0.002 c -3.9307,-0.43632 -6.31072,-3.84426 -6.31072,-6.99596 z m -4.93614,8.75399 v 14.51849 l -2.68251,-0.0134 3.92792,6.9882 4.03592,-6.94841 -2.68149,-0.0134 V 90.51623 Z m -11.33574,3.12177 -2.59932,0.45424 v 3.56774 c 0,1.68601 1.50412,2.91042 3.13262,2.91042 h 8.69819 v -2.59985 h -8.69819 c -0.40159,0 -0.5333,-0.21164 -0.5333,-0.31057 z m 25.26979,5.2e-4 v 4.02146 c 0,0.0989 -0.13171,0.31057 -0.5333,0.31057 h -8.67183 v 2.59985 h 8.67183 c 1.6285,0 3.13314,-1.22441 3.13314,-2.91042 v -3.56722 z"
       inkscape:label="1" />
  </g>
</svg>
