<?xml version="1.0" encoding="UTF-8"?>
<svg width="200" height="200" version="1.1" xmlns="http://www.w3.org/2000/svg">
 <g fill="none">
  <g stroke="#999" stroke-width="3">
   <path d="m0 16v-16h16"/>
   <path d="m200 16v-16h-16"/>
   <path d="m0 184v16h16"/>
   <path d="m200 184v16h-16"/>
  </g>
  <g stroke="#000">
   <circle cx="69.597" cy="139.51" r="14.936" stroke-width="8"/>
   <path d="m132.45 57.945a17.85 17.85 0 0 1 0.11988 2.0653 17.85 17.85 0 0 1-17.85 17.85 17.85 17.85 0 0 1-17.85-17.85 17.85 17.85 0 0 1 0.12035-2.0693" stroke-width="5"/>
   <path d="m80.985 57.945h67.479" stroke-width="5"/>
   <g stroke-width="4">
    <path d="m114.72 95.869v-11.97"/>
    <path d="m132.65 91.065-5.9852-10.367"/>
    <path d="m145.78 77.94-10.367-5.9852"/>
    <path d="m96.796 91.065 5.9852-10.367"/>
    <path d="m83.671 77.94 10.367-5.9852"/>
   </g>
   <rect x="48.729" y="45.551" width="131.99" height="66.949" stroke-width="7"/>
   <circle cx="156.67" cy="139.51" r="14.936" stroke-width="8"/>
   <path d="m5.7203 112.5h30.297" stroke-width="7"/>
  </g>
 </g>
</svg>
