<?xml version="1.0" encoding="UTF-8"?>
<svg width="200" height="200" version="1.1" xmlns="http://www.w3.org/2000/svg">
 <g fill="none">
  <g stroke="#999" stroke-width="3">
   <path d="m0 16v-16h16"/>
   <path d="m200 16v-16h-16"/>
   <path d="m0 184v16h16"/>
   <path d="m200 184v16h-16"/>
  </g>
  <g stroke="#000" stroke-width="10">
   <path d="m148.69 40.418a49 49 0 0 1-22.548 46.914 49 49 0 0 1-52.051 0.15006 49 49 0 0 1-22.819-46.783"/>
   <path d="m20.551 40.89h158.9"/>
   <path d="m100.65 114.29 31.011 53.712"/>
   <path d="m156.7 81.927 31.011 53.712"/>
   <path d="m121.17 106.67 29.179 50.539"/>
   <path d="m139.85 95.887 29.179 50.539"/>
  </g>
 </g>
</svg>
