<?xml version="1.0" encoding="UTF-8" standalone="no"?>
<!-- Created with Inkscape (http://www.inkscape.org/) -->

<svg
   width="53.710415mm"
   height="53.710415mm"
   viewBox="0 0 53.710415 53.710415"
   version="1.1"
   id="svg1"
   inkscape:version="1.3.2 (091e20e, 2023-11-25, custom)"
   sodipodi:docname="ISO_7000_-_Ref-No_0637A.svg"
   xmlns:inkscape="http://www.inkscape.org/namespaces/inkscape"
   xmlns:sodipodi="http://sodipodi.sourceforge.net/DTD/sodipodi-0.dtd"
   xmlns="http://www.w3.org/2000/svg"
   xmlns:svg="http://www.w3.org/2000/svg">
  <sodipodi:namedview
     id="namedview1"
     pagecolor="#ffffff"
     bordercolor="#000000"
     borderopacity="0.25"
     inkscape:showpageshadow="2"
     inkscape:pageopacity="0.0"
     inkscape:pagecheckerboard="0"
     inkscape:deskcolor="#d1d1d1"
     inkscape:document-units="mm"
     inkscape:zoom="0.74029882"
     inkscape:cx="-492.36874"
     inkscape:cy="299.2035"
     inkscape:window-width="1920"
     inkscape:window-height="1009"
     inkscape:window-x="-8"
     inkscape:window-y="-8"
     inkscape:window-maximized="1"
     inkscape:current-layer="layer1" />
  <defs
     id="defs1" />
  <g
     inkscape:label="Ebene 1"
     inkscape:groupmode="layer"
     id="layer1"
     transform="translate(-235.21458,-69.320833)">
    <g
       fill="none"
       id="g50898-3-7-2"
       transform="matrix(0.26458333,0,0,0.26458333,235.61145,69.717708)"
       inkscape:label="2"
       style="display:inline">
      <g
         stroke="#999999"
         stroke-width="3"
         id="g50892-0-1-0"
         inkscape:label="2">
        <path
           d="M 0,16 V 0 h 16"
           id="path50884-9-2-1"
           inkscape:label="2" />
        <path
           d="M 200,16 V 0 h -16"
           id="path50886-6-7-1"
           inkscape:label="2" />
        <path
           d="m 0,184 v 16 h 16"
           id="path50888-7-3-2"
           inkscape:label="2" />
        <path
           d="m 200,184 v 16 h -16"
           id="path50890-3-1-9"
           inkscape:label="2" />
      </g>
    </g>
    <path
       id="path1"
       style="color:#000000;fill:#000000;-inkscape-stroke:none"
       d="m 253.44059,77.457029 -3.01635,8.64857 h 1.67018 c -0.18854,6.27117 1.66944,9.31919 2.50941,11.7352 0.4594,1.32139 0.66788,2.424091 0.27957,4.185271 -0.35516,1.61079 -1.28325,3.78737 -3.14503,6.87142 h 2.86029 c 1.46885,-2.58324 2.30731,-4.6009 2.6908,-6.34019 0.48573,-2.20309 0.1837,-3.971881 -0.35709,-5.527311 -0.99306,-2.85633 -2.5952,-5.11602 -2.37608,-10.92439 h 1.90014 z m 8.64754,0 -3.01635,8.64857 h 1.67018 c -0.18854,6.27117 1.66944,9.31919 2.50941,11.7352 0.45939,1.32139 0.66787,2.424091 0.27956,4.185271 -0.35515,1.61079 -1.28324,3.78737 -3.14502,6.87142 h 2.86029 c 1.46885,-2.58324 2.3073,-4.6009 2.69079,-6.34019 0.48574,-2.20309 0.1837,-3.971881 -0.35708,-5.527311 -0.99306,-2.85633 -2.59521,-5.11602 -2.37609,-10.92439 h 1.90015 z m 8.64805,0 -3.01635,8.64857 h 1.67018 c -0.18854,6.27117 1.66944,9.31919 2.50941,11.7352 0.4594,1.32139 0.66788,2.424091 0.27957,4.185271 -0.35516,1.61079 -1.28325,3.78737 -3.14503,6.87142 h 2.86029 c 1.46885,-2.58324 2.3073,-4.6009 2.69079,-6.34019 0.48573,-2.20309 0.18371,-3.971881 -0.35708,-5.527311 -0.99306,-2.85633 -2.59521,-5.11602 -2.37609,-10.92439 h 1.90015 z M 248.2435,112.4306 v 2.46445 h 27.65257 v -2.46445 z"
       inkscape:label="1" />
  </g>
</svg>
