<?xml version="1.0" encoding="UTF-8" standalone="no"?>
<!-- Created with Inkscape (http://www.inkscape.org/) -->

<svg
   width="53.710415mm"
   height="53.710415mm"
   viewBox="0 0 53.710415 53.710415"
   version="1.1"
   id="svg1"
   inkscape:version="1.3.2 (091e20e, 2023-11-25, custom)"
   sodipodi:docname="ISO_7000_-_Ref-No_0646.svg"
   xmlns:inkscape="http://www.inkscape.org/namespaces/inkscape"
   xmlns:sodipodi="http://sodipodi.sourceforge.net/DTD/sodipodi-0.dtd"
   xmlns="http://www.w3.org/2000/svg"
   xmlns:svg="http://www.w3.org/2000/svg">
  <sodipodi:namedview
     id="namedview1"
     pagecolor="#ffffff"
     bordercolor="#000000"
     borderopacity="0.25"
     inkscape:showpageshadow="2"
     inkscape:pageopacity="0.0"
     inkscape:pagecheckerboard="0"
     inkscape:deskcolor="#d1d1d1"
     inkscape:document-units="mm"
     inkscape:zoom="0.74029882"
     inkscape:cx="300.55431"
     inkscape:cy="361.34057"
     inkscape:window-width="1920"
     inkscape:window-height="1009"
     inkscape:window-x="-8"
     inkscape:window-y="-8"
     inkscape:window-maximized="1"
     inkscape:current-layer="layer1" />
  <defs
     id="defs1" />
  <g
     inkscape:label="Ebene 1"
     inkscape:groupmode="layer"
     id="layer1"
     transform="translate(-25.399995,-52.916665)">
    <g
       fill="none"
       id="g50898-3-7-2"
       transform="matrix(0.26458333,0,0,0.26458333,25.79687,53.31354)"
       inkscape:label="2"
       style="display:inline">
      <g
         stroke="#999999"
         stroke-width="3"
         id="g50892-0-1-0"
         inkscape:label="2">
        <path
           d="M 0,16 V 0 h 16"
           id="path50884-9-2-1"
           inkscape:label="2" />
        <path
           d="M 200,16 V 0 h -16"
           id="path50886-6-7-1"
           inkscape:label="2" />
        <path
           d="m 0,184 v 16 h 16"
           id="path50888-7-3-2"
           inkscape:label="2" />
        <path
           d="m 200,184 v 16 h -16"
           id="path50890-3-1-9"
           inkscape:label="2" />
      </g>
    </g>
    <path
       id="path1"
       style="color:#000000;display:inline;fill:#000000;-inkscape-stroke:none"
       inkscape:label="1"
       d="m 40.15345,67.805697 c -1.62849,0 -3.13262,1.2244 -3.13262,2.91041 v 7.426417 l 2.59932,-0.45422 v -6.972197 c 0,-0.0989 0.13171,-0.31057 0.5333,-0.31057 h 24.20318 c 0.40159,0 0.5333,0.21164 0.5333,0.31057 v 6.972197 l 2.59984,0.45422 v -7.426417 c 0,-1.68601 -1.50464,-2.91041 -3.13314,-2.91041 z m 20.33519,9.983877 -1.83968,1.83917 c 1.46835,1.52354 3.46428,2.61363 5.86786,2.88044 h -0.0139 l 6.25337,0.76688 -0.36432,2.76831 7.43107,-3.05718 -6.39186,-4.83898 -0.3359,2.55023 -6.28333,-0.77101 -0.008,-0.002 c -1.78614,-0.19827 -3.24757,-1.01371 -4.31551,-2.13631 z m -16.53542,0.0749 c -1.06154,1.08441 -2.4999,1.86747 -4.24677,2.06138 l -0.008,0.002 -6.28334,0.77101 -0.33589,-2.55023 -6.39186,4.83898 7.43107,3.05718 -0.36432,-2.76831 6.25337,-0.76688 h -0.014 c 2.36503,-0.26252 4.337,-1.32084 5.79861,-2.80603 z m -4.33307,6.94066 -2.59932,0.45476 v 3.56774 c 0,1.68601 1.50413,2.91041 3.13262,2.91041 h 24.20318 c 1.6285,0 3.13314,-1.2244 3.13314,-2.91041 v -3.56774 l -2.59984,-0.45372 v 4.02146 c 0,0.0989 -0.13171,0.31006 -0.5333,0.31006 H 40.15345 c -0.40159,0 -0.5333,-0.21113 -0.5333,-0.31006 z"
       sodipodi:nodetypes="ssccssssccsssccccccccccccccccccccccccccsccsccssssc" />
  </g>
</svg>
