<?xml version="1.0" encoding="UTF-8"?>
<svg width="200" height="200" version="1.1" xmlns="http://www.w3.org/2000/svg">
 <g fill="none" stroke="#999" stroke-width="3">
  <path d="m0 16v-16h16"/>
  <path d="m200 16v-16h-16"/>
  <path d="m0 184v16h16"/>
  <path d="m200 184v16h-16"/>
 </g>
 <path d="m71.707 137.49c-0.49914-3.2129 1.2504-6.8283 4.4774-7.8027 3.345-1.1169 6.8522-0.20709 10.23 0.17214 2.7132 0.10211 5.7896-0.90547 7.1549-3.4151 1.0678-2.2044-3.5455-2.2061-5.6569-2.2233-6.2537 0.74181-11.4-2.4058-14.867-7.5713-2.225-3.6258-1.3194-8.3162 0.63417-11.856 0.94596-1.7254 2.1854-3.2683 3.5764-4.6548 2.4639-2.4752 5.7052-4.2171 9.2219-4.4642 3.2129-0.49914 6.8283 1.2504 7.8027 4.4774 1.1169 3.345 0.2071 6.8521-0.17214 10.23-0.10209 2.7133 0.90547 5.7896 3.4151 7.1549 2.2044 1.0678 2.2061-3.5455 2.2234-5.6569-0.74182-6.2537 2.4058-11.4 7.5713-14.867 3.6258-2.225 8.3162-1.3194 11.856 0.63417 1.7254 0.94596 3.2683 2.1854 4.6548 3.5764 2.4752 2.464 4.2171 5.7052 4.4642 9.2219 0.49916 3.2129-1.2504 6.8283-4.4774 7.8027-3.345 1.117-6.8522 0.2071-10.23-0.17214-2.7132-0.1021-5.7896 0.90547-7.1549 3.4151-1.0678 2.2044 3.5455 2.2061 5.6569 2.2233 6.2537-0.74181 11.4 2.4058 14.867 7.5713 2.225 3.6258 1.3194 8.3162-0.63416 11.856-0.94596 1.7254-2.1854 3.2683-3.5764 4.6547-2.464 2.4752-5.7052 4.2171-9.2218 4.4642-3.2129 0.49914-6.8283-1.2504-7.8027-4.4774-1.117-3.345-0.2071-6.8522 0.17213-10.23 0.10209-2.7132-0.90547-5.7896-3.4151-7.1549-2.2044-1.0678-2.2061 3.5455-2.2233 5.6569 0.74181 6.2537-2.4058 11.4-7.5713 14.867-3.6258 2.225-8.3162 1.3194-11.856-0.63417-1.7254-0.94596-3.2683-2.1854-4.6547-3.5764-2.4752-2.464-4.2171-5.7052-4.4642-9.2218z"/>
 <path d="m67.161 29.237h65.678l6.3e-4 35.144c15.907 10.848 25.423 28.861 25.423 48.119 0 32.178-26.085 58.263-58.263 58.263s-58.263-26.085-58.263-58.263c0-19.237 9.496-37.235 25.4-48.052z" fill="none" stroke="#000" stroke-width="10"/>
 <path d="m86.569 88.089v-45.145h15.432q5.821 0 8.4466 1.2318 2.6504 1.201 4.2357 4.3112t1.5853 7.1135q0 5.0811-2.4027 8.4069-2.4027 3.295-7.1834 4.1573 2.3779 1.7245 3.9137 3.7877 1.5605 2.0632 4.1862 7.3291l4.4339 8.8072h-8.7687l-5.3008-9.8234q-2.8238-5.2659-3.8642-6.6208-1.0404-1.3858-2.2046-1.8785-1.1642-0.52351-3.6908-0.52351h-1.4862v18.846zm7.332-26.052h5.4247q5.2761 0 6.5889-0.5543t2.0559-1.9093 0.7431-3.3874q0-2.2788-0.9908-3.6645-0.96605-1.4165-2.7495-1.7861-0.89173-0.15397-5.3504-0.15397h-5.7219z"/>
</svg>
