<?xml version="1.0" encoding="UTF-8"?>
<svg width="200" height="200" version="1.1" xmlns="http://www.w3.org/2000/svg">
 <g fill="none" stroke="#999" stroke-width="3">
  <path d="m0 16v-16h16"/>
  <path d="m200 16v-16h-16"/>
  <path d="m0 184v16h16"/>
  <path d="m200 184v16h-16"/>
 </g>
 <path d="m189.15 87.263c-26.891-16.28-57.726-24.887-89.161-24.887-31.43-1e-6 -62.26 8.6039-89.147 24.879l47.39 73.624c12.733-7.219 27.121-11.014 41.758-11.014 14.646 0 29.041 3.7991 41.78 11.026z" fill="none" stroke="#000" stroke-width="10"/>
 <circle cx="99.994" cy="184.32" r="10.593"/>
 <path d="m99.994 184.32-52.271-113.82" fill="none" stroke="#000" stroke-width="10"/>
 <g stroke="#000" stroke-width="10">
  <path d="m19.174 43.82h39.407"/>
  <path d="m80.297 43.82h39.407"/>
  <path d="m141.42 43.82h39.407"/>
 </g>
</svg>
