<?xml version="1.0" encoding="UTF-8"?>
<svg width="200" height="200" version="1.1" xmlns="http://www.w3.org/2000/svg">
 <g fill="none">
  <g stroke="#999" stroke-width="3">
   <path d="m0 16v-16h16"/>
   <path d="m200 16v-16h-16"/>
   <path d="m0 184v16h16"/>
   <path d="m200 184v16h-16"/>
  </g>
  <g stroke="#000" stroke-width="10">
   <path d="m75.087 171.39v-94.329a24.913 24.422 0 0 1 24.913-24.422 24.913 24.422 0 0 1 24.913 24.422v94.329"/>
   <path d="m59.066 77.767h-30.297"/>
   <path d="m20.507 77.767h-12.924"/>
   <path d="m59.1 58.896-24.044-18.433"/>
   <path d="m28.498 35.436-10.257-7.8629"/>
   <path d="m59.1 96.639-24.044 18.433"/>
   <path d="m28.498 120.1-10.257 7.8629"/>
   <path d="m140.93 77.767h30.297"/>
   <path d="m179.49 77.767h12.924"/>
   <path d="m140.9 58.896 24.044-18.433"/>
   <path d="m171.5 35.436 10.257-7.8629"/>
   <path d="m140.9 96.639 24.044 18.433"/>
   <path d="m171.5 120.1 10.257 7.8629"/>
   <path d="m47.458 171.39h105.08"/>
  </g>
 </g>
</svg>
