<?xml version="1.0" encoding="UTF-8"?>
<svg width="200" height="200" version="1.1" xmlns="http://www.w3.org/2000/svg">
 <g fill="none">
  <g stroke="#999" stroke-width="3">
   <path d="m0 16v-16h16"/>
   <path d="m200 16v-16h-16"/>
   <path d="m0 184v16h16"/>
   <path d="m200 184v16h-16"/>
  </g>
  <g stroke="#000">
   <path d="m67.161 29.237h65.678l6.3e-4 35.144c15.907 10.848 25.423 28.861 25.423 48.119 0 32.178-26.085 58.263-58.263 58.263s-58.263-26.085-58.263-58.263c0-19.237 9.496-37.235 25.4-48.052z" stroke-width="10"/>
   <g stroke-width="5">
    <path d="m100 98.688 16.641 28.649c4.6626 8.0268 2.8539 18.223-4.2899 24.18-7.1438 5.9577-17.56 5.9577-24.704 0-7.1435-5.9577-8.9525-16.153-4.2899-24.18z"/>
    <path d="m66.737 116.74a33.263 33.263 0 0 1 30.364-33.136 33.263 33.263 0 0 1 35.656 27.36"/>
    <path d="m58.581 116.74h16.314"/>
    <path d="m114.83 101.06 21.461 13.584 2.1186-23.33"/>
   </g>
  </g>
 </g>
</svg>
