<?xml version="1.0" encoding="UTF-8"?>
<svg width="200" height="200" version="1.1" xmlns="http://www.w3.org/2000/svg">
 <g fill="none" stroke="#999" stroke-width="3">
  <path d="m0 16v-16h16"/>
  <path d="m200 16v-16h-16"/>
  <path d="m0 184v16h16"/>
  <path d="m200 184v16h-16"/>
 </g>
 <path d="m72.715 40.775-48.078 48.27a13 13 0 0 0-3.7893 9.174v50.001a15.254 15.254 0 0 0 15.254 15.254h127.8a15.254 15.254 0 0 0 15.254-15.254v-96.017a15.254 15.254 0 0 0-15.254-15.254h-81.973a13 13 0 0 0-9.2107 3.826zm7.965 6.174h88.473v106.53h-138.3v-56.494z"/>
 <circle cx="109.51" cy="184.42" r="9.4381"/>
 <path d="m109.51 184.42-54.381-90.336" stroke="#000" stroke-width="10"/>
</svg>
