<?xml version="1.0" encoding="UTF-8"?>
<svg width="200" height="200" version="1.1" xmlns="http://www.w3.org/2000/svg">
 <g fill="none">
  <g stroke="#999" stroke-width="3">
   <path d="m0 16v-16h16"/>
   <path d="m200 16v-16h-16"/>
   <path d="m0 184v16h16"/>
   <path d="m200 184v16h-16"/>
  </g>
  <g stroke="#000">
   <path d="m59.77 16.033a43.891 43.891 0 0 0-43.889 43.891 43.891 43.891 0 0 0 41.387 43.711 43.891 43.891 0 0 1-15.621-33.523 43.891 43.891 0 0 1 43.891-43.891 43.891 43.891 0 0 1 2.4219 0.072266 43.891 43.891 0 0 0-28.189-10.26z" stroke-width="5"/>
   <path d="m53.068 174.83 39.822-109.41h5.2422l-26.896 109.41z" stroke-width="5"/>
   <path d="m172.13 174.83-39.822-109.41h-5.2422l26.896 109.41z" stroke-width="5"/>
  </g>
 </g>
 <g>
  <path d="m106.94 174.94h11.323l-1.3917-43.938h-8.54z"/>
  <path d="m108.62 121.88h7.9619l-0.98189-31h-5.9981z"/>
  <path d="m109.75 86.125 5.6915-0.18027-0.64757-20.445h-4.3906z"/>
 </g>
</svg>
