<?xml version="1.0" encoding="UTF-8"?>
<svg width="200" height="200" version="1.1" xmlns="http://www.w3.org/2000/svg">
 <g fill="none" stroke="#999" stroke-width="3">
  <path d="m0 16v-16h16"/>
  <path d="m200 16v-16h-16"/>
  <path d="m0 184v16h16"/>
  <path d="m200 184v16h-16"/>
 </g>
 <path d="m63.52 165.99c-13.199-7.6636-23.775-19.754-29.615-33.855s-6.9088-30.129-2.993-44.881c3.9158-14.752 12.793-28.14 24.857-37.488 12.064-9.3484 27.245-14.602 42.507-14.711 13.477-0.09603 26.959 3.7924 38.315 11.051 11.356 7.2586 20.546 17.861 26.118 30.133 5.5721 12.272 7.5062 26.169 5.4969 39.496-2.0093 13.327-7.9548 26.036-16.897 36.12" fill="none" stroke="#000" stroke-width="10"/>
 <path d="m174.43 147.27-36.641 20.694 10.336-40.792z"/>
 <path d="m122.53 57.826-28.963 18.82 28.912 13.283-28.127 18.783 28.103 9.7201-44.243 38.435 27.144-36.13-28.054-9.7201 28.816-19.142-28.578-13.323 31.144-23.468z"/>
</svg>
